<?xml version="1.0" encoding="UTF-8"?>
<svg id="_레이어_1" data-name="레이어_1" xmlns="http://www.w3.org/2000/svg" version="1.1" viewBox="0 0 1417.32 1417.32">
  <!-- Generator: Adobe Illustrator 29.1.0, SVG Export Plug-In . SVG Version: 2.1.0 Build 142)  -->
  <defs>
    <style>
      .st0 {
        fill: #094;
      }
    </style>
  </defs>
  <circle class="st0" cx="263.35" cy="271.82" r="190.59"/>
  <circle class="st0" cx="708.65" cy="271.82" r="190.59"/>
  <circle class="st0" cx="1153.94" cy="264.18" r="190.59"/>
  <circle class="st0" cx="708.65" cy="708.29" r="190.59"/>
  <circle class="st0" cx="263.35" cy="708.29" r="190.59"/>
  <circle class="st0" cx="261.29" cy="1155.65" r="190.59"/>
  <circle class="st0" cx="708.65" cy="1155.65" r="190.59"/>
  <circle class="st0" cx="1153.35" cy="1153" r="190.59"/>
  <path class="st0" d="M1248.94,804.25c-52.79,0-95.59-42.8-95.59-95.59s42.8-95.59,95.59-95.59,95.49,42.7,95.59,95.4c0-.06,0-.12,0-.18,0-105.26-85.33-190.59-190.59-190.59s-190.59,85.33-190.59,190.59,85.33,190.59,190.59,190.59,188.94-83.71,190.55-187.57c-1.4,51.57-43.64,92.94-95.55,92.94Z"/>
</svg>